PathFileType	4	(X/Y/Z)	D:\TRACE\spot_10-12-23\spot_body_motion_2_2-platform.trc
DataRate	CameraRate	NumFrames	NumMarkers	Units	OrigDataRate	OrigDataStartFrame	OrigNumFrames
100.00	100.00	      54	5	mm	100.00	1751	      7000
Frame#	Time	Left_Front			Right_Front			Left_Aft			Right_Aft			Post			
		X1	Y1	Z1	X2	Y2	Z2	X3	Y3	Z3	X4	Y4	Z4	X5	Y5	Z5	

1751	17.500	-800.82837	-48.70690	-652.44080	771.65424	-43.79416	-645.71490	-717.98431	42.22832	481.89023	699.45166	53.81629	567.60400	-17.48161	659.99298	-1032.74829	
1752	17.510	-799.78754	-47.86816	-652.39368	772.63257	-43.22878	-645.56451	-716.77277	41.74634	482.19250	700.43744	53.35456	567.71991	-16.38326	661.05029	-1031.72266	
1753	17.520	-798.62122	-47.59895	-652.11975	773.92645	-42.42670	-645.39703	-715.79639	41.33733	482.28510	700.92621	52.22589	568.07709	-15.63190	662.35181	-1030.80566	
1754	17.530	-797.65442	-46.54654	-652.13086	774.80841	-41.78892	-645.08423	-714.77985	40.87161	482.57999	702.44629	52.08292	568.33649	-14.60693	663.37885	-1029.61292	
1755	17.540	-796.70721	-45.96915	-652.04706	775.67108	-40.97301	-645.27551	-713.89893	40.38467	482.63104	703.47101	51.38493	568.40393	-13.56416	664.82990	-1028.64856	
1756	17.550	-795.69556	-44.83701	-651.84290	776.90826	-39.96185	-645.09485	-712.79620	39.78048	482.91843	704.56384	50.92432	568.74469	-12.36790	665.99091	-1027.50061	
1757	17.560	-794.67365	-44.10238	-651.59595	777.67395	-39.29684	-645.02905	-711.89673	39.28736	483.04538	705.63190	50.22522	569.11304	-11.47555	667.49493	-1026.37756	
1758	17.570	-793.38208	-43.19551	-651.39795	779.12488	-38.12765	-644.59338	-710.77228	38.52858	483.50305	706.71094	49.48182	569.29718	-10.51062	668.97693	-1025.17700	
1759	17.580	-792.19427	-42.23162	-651.36230	780.15875	-37.31144	-644.36865	-709.58325	37.96206	483.55542	707.82947	48.82877	569.68140	-9.40330	670.32312	-1023.85028	
1760	17.590	-791.51093	-41.24353	-651.18445	781.05591	-36.28333	-644.39996	-708.66901	37.38939	483.86292	708.73578	48.13282	569.99457	-8.24925	671.87952	-1022.82642	
1761	17.600	-790.44019	-40.24376	-651.03033	782.07837	-35.29254	-644.22168	-707.52533	36.70401	484.18359	709.79071	47.07312	570.09094	-7.12395	673.51013	-1021.38727	
1762	17.610	-789.26935	-39.05279	-650.96545	783.26141	-34.27465	-644.13397	-706.55005	36.05822	484.38412	711.04401	46.30875	570.27747	-6.29592	675.17810	-1020.04907	
1763	17.620	-788.22906	-38.11120	-650.70374	784.43689	-33.26551	-643.90424	-705.30518	35.51525	484.74768	712.02759	45.55185	570.57684	-5.12039	676.64667	-1018.81757	
1764	17.630	-786.68628	-37.26421	-650.79309	785.48737	-32.03008	-643.48138	-704.22064	34.49347	485.23642	713.11725	44.65562	571.12714	-4.00369	678.38361	-1017.39771	
1765	17.640	-785.96967	-36.10880	-650.29700	786.55682	-31.11859	-643.72388	-703.23157	33.79165	485.24356	714.24426	43.93302	571.38220	-2.84835	680.15442	-1015.95251	
1766	17.650	-784.76001	-35.07799	-650.04266	787.72589	-30.09818	-643.28180	-702.01776	33.07349	485.76492	715.19269	42.94022	571.73572	-1.65461	681.67456	-1014.41632	
1767	17.660	-783.84424	-33.50335	-649.91040	788.89240	-28.54960	-643.26788	-701.08685	32.41137	485.90451	716.47821	41.92436	571.92432	-0.85734	683.40533	-1013.06207	
1768	17.670	-782.70892	-32.17398	-649.86316	790.03766	-27.53897	-642.65613	-699.68939	31.52138	486.48584	717.53949	41.20287	572.19427	0.45351	685.32318	-1011.53253	
1769	17.680	-781.38721	-31.33414	-649.51849	791.27368	-26.17595	-642.70520	-698.62598	31.00390	486.67395	718.87610	40.24143	572.57245	1.70715	687.28210	-1009.92072	
1770	17.690	-780.18134	-30.14725	-649.20166	792.05048	-25.02702	-642.39221	-697.47510	30.07358	486.97873	719.78357	39.28130	573.00403	2.51504	689.24164	-1008.25146	
1771	17.700	-779.17023	-28.85256	-649.01831	793.56769	-23.79004	-641.97083	-696.36853	29.12701	487.23996	721.09247	38.33900	573.35242	3.68781	691.12726	-1006.56763	
1772	17.710	-778.06854	-27.60789	-648.86761	794.43365	-22.50286	-641.93896	-695.22705	28.25445	487.51389	721.99139	37.40749	573.64484	5.12135	693.08350	-1004.72754	
1773	17.720	-776.90637	-26.17773	-648.50555	795.44965	-21.20758	-641.84711	-694.01831	27.46546	488.03009	722.84064	36.15267	574.21741	6.08457	695.06122	-1003.25140	
1774	17.730	-775.48376	-24.99553	-648.20911	796.96259	-19.83878	-641.28156	-692.86481	26.52543	488.57681	724.34174	35.09330	574.32599	6.93558	697.19855	-1001.47070	
1775	17.740	-774.41595	-23.76635	-647.95526	797.94678	-18.18635	-641.02362	-691.84094	25.66718	488.90262	724.82544	34.01376	574.96765	8.06041	699.20831	-999.67786	
1776	17.750	-773.71155	-21.71560	-647.92065	799.06958	-17.01977	-640.88324	-690.49365	24.51358	489.26358	725.90491	32.79639	575.30804	9.14875	701.35406	-997.61359	
1777	17.760	-772.64148	-20.64863	-647.32825	800.11932	-15.70525	-640.63849	-689.57104	23.78104	489.37042	726.86737	31.77466	575.74951	10.47703	703.36096	-995.92584	
1778	17.770	-771.35706	-19.31122	-647.10889	801.16681	-14.31787	-640.27600	-688.40143	22.72983	489.90598	728.04553	30.70722	576.26404	11.51898	705.78271	-993.87244	
1779	17.780	-770.30182	-17.68396	-646.94910	802.37183	-12.81699	-640.04474	-687.38934	22.05086	490.17380	729.73969	29.66604	576.31976	12.66639	707.77356	-991.81390	
1780	17.790	-769.13544	-16.21636	-646.71576	803.72766	-11.49240	-639.77148	-686.12787	20.92462	490.59726	731.28748	28.63560	576.63495	13.64646	710.06995	-989.80005	
1781	17.800	-767.89850	-14.86517	-646.28729	804.52704	-9.95245	-639.50354	-685.06714	19.88797	490.81360	732.18652	27.36686	576.89355	14.98014	712.25189	-987.72974	
1782	17.810	-766.64398	-13.69027	-646.06061	806.02051	-8.55617	-639.03436	-683.77875	18.65471	491.57388	733.59302	26.32367	577.31696	16.03397	714.46606	-985.95618	
1783	17.820	-765.84308	-11.92753	-645.71259	806.76404	-7.05427	-638.91504	-682.82513	17.93768	491.66406	734.54572	25.01396	577.73358	17.02425	716.66882	-983.69952	
1784	17.830	-764.66064	-10.40733	-645.34125	808.00671	-5.46730	-638.46417	-681.56299	16.70036	492.20941	735.71985	23.93880	578.18475	18.22344	718.91418	-981.75793	
1785	17.840	-763.82916	-8.65862	-644.89984	809.24152	-4.05247	-638.16687	-680.56134	15.89440	492.43964	736.85742	22.61221	578.62708	19.37063	721.21924	-979.66718	
1786	17.850	-762.36945	-7.29663	-644.67456	810.05481	-2.37148	-637.74371	-679.44281	14.93142	492.80917	737.70276	21.39789	578.94843	20.30227	723.48328	-978.01978	
1787	17.860	-761.07202	-5.82938	-644.56299	811.52502	-0.73762	-637.63379	-678.22632	13.78158	493.31720	739.08258	20.19433	579.38763	21.42919	725.67609	-976.12335	
1788	17.870	-760.07538	-4.50272	-644.08539	812.47699	0.44693	-637.21680	-677.05890	12.81894	493.58212	740.12378	19.18039	579.72327	22.57238	728.03070	-974.15845	
1789	17.880	-759.09961	-2.76634	-643.59900	813.51062	2.08515	-636.88904	-676.08759	11.54126	493.95044	741.22919	17.63024	580.20081	23.72689	730.43390	-972.16553	
1790	17.890	-758.05634	-1.16560	-643.30487	814.61829	3.71587	-636.43298	-675.10809	10.75824	494.24042	742.12146	16.46412	580.52753	24.59456	732.59161	-970.34979	
1791	17.900	-756.72943	0.12257	-643.12439	815.95844	5.24193	-635.99408	-673.86383	9.55830	494.90900	743.44794	15.16986	580.97430	25.74466	735.02081	-968.39954	
1792	17.910	-755.87616	2.15099	-642.75409	816.52899	6.77062	-635.75702	-672.84296	8.68315	495.20126	744.44543	13.91099	581.27966	26.91171	737.40356	-966.23511	
1793	17.920	-754.77899	3.42565	-642.14844	817.88696	8.32404	-635.45325	-671.78265	7.43320	495.56113	744.99695	12.16951	581.39557	28.01306	739.67456	-964.16296	
1794	17.930	-753.86053	4.89557	-641.83502	818.89575	9.98299	-635.00244	-670.74841	6.30659	496.00726	746.75549	11.50506	581.99524	28.90962	741.94904	-962.10718	
1795	17.940	-752.90643	6.67687	-641.49744	819.93042	11.54239	-634.55585	-669.83075	5.39665	496.21500	747.42181	10.07643	582.24805	29.91580	744.27899	-959.94934	
1796	17.950	-751.67072	8.19030	-641.10022	820.83118	13.09175	-634.19135	-668.70728	4.07034	496.68796	748.71973	8.94946	582.73035	31.00945	746.82642	-957.60541	
1797	17.960	-750.78931	10.04303	-640.80341	822.11212	14.82069	-633.86676	-667.77582	3.21133	496.99347	749.45673	7.52608	583.14905	31.83669	749.10413	-955.27075	
1798	17.970	-749.73889	11.45959	-640.40485	822.78986	16.26051	-633.55438	-666.70551	1.99684	497.33786	750.43909	6.12600	583.59003	32.87037	751.38531	-952.91943	
1799	17.980	-748.88312	12.91611	-639.97046	823.78680	18.04180	-633.21802	-665.66864	0.98432	497.75879	751.70441	5.02845	583.90570	33.91973	753.65747	-950.60187	
1800	17.990	-747.84717	14.50682	-639.54596	825.05457	19.44493	-632.45081	-664.72772	-0.21381	498.25876	752.46289	3.76627	584.14258	34.84005	756.04651	-948.31390	
1801	18.000	-746.72272	16.01294	-639.09760	825.66943	20.91467	-632.36005	-663.85303	-1.31444	498.64630	753.63678	2.60109	584.59546	35.85862	758.18219	-946.22778	
1802	18.010	-745.99261	17.71883	-638.77063	826.67230	22.58918	-631.84595	-663.01044	-2.23268	498.90762	754.44269	1.39227	584.89093	36.77488	760.50775	-944.30408	
1803	18.020	-745.10443	19.53457	-638.51563	827.74518	24.14803	-631.56433	-661.94922	-3.47494	499.40891	754.38599	-0.92424	585.22394	37.68806	762.83691	-942.08191	
1804	18.030	-744.06079	20.93064	-638.02216	828.42792	25.67080	-631.11719	-660.88086	-4.73494	499.77960	756.40143	-1.51196	585.68573	38.48287	764.97534	-940.10901	
